# xmcd
#
# Track frame offsets: 
#        150
#        18559
#        36422
#        62929
#        80102
#        101495
#        123582
#        155689
#        193014
#        212397
#        227708
#
# Disc length: 3970 seconds
#
# Revision: 0
# Processed by: cddbd v1.5.2PL0 Copyright (c) Steve Scherf et al.
# Submitted via: ExactAudioCopy v0.99pb3
#
DISCID=9a0f800b
DTITLE=Kentucky Snakehandlers - Songs From The Glow In The Dark House
DYEAR=2001
DGENRE=Indie
TTITLE0=Tarnished and Tainted
TTITLE1=Easy Street
TTITLE2=The Light
TTITLE3=A Dream
TTITLE4=Red Horses
TTITLE5=The Mirror
TTITLE6=New Holiday
TTITLE7=Virgin Stuff
TTITLE8=Water Down
TTITLE9=What Harvest?
TTITLE10=The Glow In The Dark House
EXTD=
EXTT0=
EXTT1=
EXTT2=
EXTT3=
EXTT4=
EXTT5=
EXTT6=
EXTT7=
EXTT8=
EXTT9=
EXTT10=
PLAYORDER=
